<svg width="22" height="22" viewBox="0 0 22 22" fill="none" xmlns="http://www.w3.org/2000/svg">
    <g id="calendar-number-outline">
        <path id="rectangulo"
            d="M18.6923 2H3.30769C2.03319 2 1 3.03319 1 4.30769V18.1538C1 19.4284 2.03319 20.4615 3.30769 20.4615H18.6923C19.9668 20.4615 21 19.4284 21 18.1538V4.30769C21 3.03319 19.9668 2 18.6923 2Z"
            stroke="white" stroke-width="2" stroke-linejoin="round" />
        <path id="numero"
            d="M4.84615 1V2.53846M17.1538 1V2.53846M21 6.38462H1M13.3077 11.1923L15.3952 9.65385H15.6154V17.7308M6.09519 10.3716C6.30337 10.0197 6.88606 9.46154 7.9149 9.46154C9.13125 9.46154 10.2173 10.124 10.2173 11.3798C10.2201 11.6229 10.1741 11.8641 10.0822 12.0892C9.99034 12.3143 9.85433 12.5187 9.68221 12.6904C9.15673 13.2284 8.35481 13.4341 7.91683 13.4341C8.41202 13.4341 9.32019 13.6668 9.91442 14.2745C10.2952 14.6625 10.4712 15.2096 10.4712 15.8163C10.4712 17.1567 9.3399 17.9231 7.96538 17.9231C6.80337 17.9231 6.09038 17.0784 5.85577 16.6808"
            stroke="white" stroke-width="2" stroke-linecap="round" stroke-linejoin="round" />
    </g>
</svg>