<svg width="50" height="42" viewBox="0 0 50 42" fill="none" xmlns="http://www.w3.org/2000/svg">
    <path
        d="M44.2706 10.0085C43.9924 10.2116 43.8383 10.5437 43.8629 10.8873C43.8917 11.29 43.8921 11.6985 43.8921 12.1486C43.8921 25.2653 33.9143 40.3046 15.736 40.3046C11.5545 40.3046 7.59714 39.4023 4.03941 37.776C8.45418 37.4625 12.5078 35.8313 15.8136 33.2402C16.1462 32.9795 16.279 32.5378 16.1453 32.1369C16.0117 31.7359 15.6404 31.4623 15.2178 31.4534C11.7099 31.3793 8.69542 29.3904 7.17836 26.4992C7.30128 26.5031 7.42538 26.5051 7.55078 26.5051C8.56078 26.5051 9.56519 26.366 10.4983 26.1242C10.9491 26.0074 11.2596 25.5949 11.2471 25.1294C11.2346 24.6639 10.9025 24.2687 10.4461 24.1761C6.6834 23.4134 3.75812 20.395 3.14785 16.5831C4.23421 16.9832 5.40635 17.2263 6.62464 17.2722C7.07196 17.2891 7.476 17.0066 7.61377 16.5807C7.75154 16.1548 7.58947 15.6892 7.21701 15.4409C4.72425 13.779 3.09385 10.9448 3.09385 7.73862C3.09385 6.54045 3.31571 5.41431 3.72147 4.3764C8.91521 10.1402 16.3241 13.8586 24.567 14.2893C24.8767 14.3055 25.1764 14.1771 25.3783 13.9416C25.5802 13.7062 25.6614 13.3904 25.5981 13.0868C25.4512 12.3815 25.3653 11.6574 25.3653 10.943C25.3653 5.84602 29.4882 1.69556 34.6128 1.69556C37.2781 1.69556 39.6814 2.81195 41.3702 4.61516C41.6048 4.86563 41.9514 4.97833 42.2884 4.91369C43.6939 4.64417 45.0655 4.23016 46.3717 3.69068C45.6335 4.71758 44.6857 5.58915 43.5862 6.24552C43.1828 6.48638 43.0014 6.97566 43.1504 7.42129C43.2995 7.86692 43.7387 8.14869 44.2058 8.09841C45.1667 7.99498 46.1123 7.81993 47.0342 7.58534C46.1864 8.472 45.2609 9.2854 44.2706 10.0085Z"
        stroke="#E7A117" stroke-width="2" stroke-linejoin="round" />
</svg>