<svg width="50" height="36" viewBox="0 0 50 36" fill="none" xmlns="http://www.w3.org/2000/svg">
    <path
        d="M46.4503 6.47222L46.4505 6.4728C46.9157 8.22034 47.161 10.9952 47.285 13.4047C47.3462 14.5946 47.3769 15.6704 47.3922 16.4488C47.3998 16.8378 47.4037 17.1519 47.4056 17.3683C47.4065 17.4765 47.407 17.5601 47.4072 17.6164L47.4074 17.68L47.4075 17.6957L47.4075 17.6994V17.7002V17.7003V17.7004V17.7005V17.7013L47.4075 17.705L47.4074 17.7207L47.4072 17.7843C47.407 17.8406 47.4065 17.9242 47.4056 18.0324C47.4037 18.2487 47.3998 18.5629 47.3922 18.9519C47.3769 19.7303 47.3462 20.8061 47.285 21.9959C47.161 24.4054 46.9157 27.1804 46.4505 28.9279L46.4503 28.9285C46.0009 30.6209 44.6751 31.9108 42.9657 32.3706L42.9651 32.3708C42.1454 32.5919 40.616 32.7746 38.6985 32.9154C36.8093 33.0541 34.6258 33.147 32.5483 33.2091C30.4724 33.2712 28.5105 33.3023 27.0671 33.3178C26.3456 33.3256 25.7541 33.3295 25.3432 33.3314C25.1378 33.3324 24.9776 33.3328 24.8689 33.3331L24.7453 33.3333L24.714 33.3333L24.7062 33.3333H24.7043H24.7038C24.7038 33.3333 24.7037 33.3333 24.7037 34.3333C24.7037 33.3333 24.7037 33.3333 24.7036 33.3333H24.7032H24.7013L24.6935 33.3333L24.6622 33.3333L24.5386 33.3331C24.4299 33.3328 24.2696 33.3324 24.0642 33.3314C23.6534 33.3295 23.0619 33.3256 22.3404 33.3178C20.8969 33.3023 18.935 33.2712 16.8591 33.2091C14.7817 33.147 12.5981 33.0541 10.7089 32.9154C8.79147 32.7746 7.26209 32.5919 6.44232 32.3708L6.44172 32.3706C4.7324 31.9108 3.40659 30.6209 2.95712 28.9285L2.95697 28.9279C2.49174 27.1804 2.24651 24.4054 2.12251 21.9959C2.06127 20.8061 2.03061 19.7303 2.01528 18.9519C2.00762 18.5629 2.0038 18.2487 2.0019 18.0324C2.00094 17.9242 2.00047 17.8406 2.00023 17.7843L2.00003 17.7207L2 17.705L2 17.7013L2 17.7005V17.7004V17.7003V17.7002L2 17.6994L2 17.6957L2.00003 17.68L2.00023 17.6164C2.00047 17.5601 2.00094 17.4765 2.0019 17.3683C2.0038 17.1519 2.00762 16.8378 2.01528 16.4488C2.03061 15.6704 2.06127 14.5946 2.12251 13.4047C2.24651 10.9952 2.49174 8.22034 2.95697 6.4728L2.95712 6.47222C3.41117 4.76258 4.74987 3.41792 6.44176 2.96271L6.44232 2.96256C7.26209 2.74148 8.79147 2.55872 10.7089 2.41795C12.5981 2.27924 14.7817 2.1863 16.8591 2.12418C18.935 2.06212 20.8969 2.03106 22.3404 2.01552C23.0619 2.00776 23.6534 2.00388 24.0642 2.00194C24.2696 2.00097 24.4299 2.00048 24.5386 2.00024L24.6622 2.00003L24.6935 2L24.7013 2L24.7032 2H24.7036C24.7037 2 24.7037 2 24.7037 1C24.7037 2 24.7038 2 24.7038 2H24.7043L24.7062 2L24.714 2L24.7453 2.00003L24.8689 2.00024C24.9776 2.00048 25.1378 2.00097 25.3432 2.00194C25.7541 2.00388 26.3456 2.00776 27.0671 2.01552C28.5106 2.03106 30.4725 2.06212 32.5483 2.12418C34.6258 2.1863 36.8094 2.27924 38.6986 2.41795C40.616 2.55872 42.1454 2.74148 42.9651 2.96255L42.9657 2.96272C44.6576 3.41784 45.9963 4.76256 46.4503 6.47222Z"
        stroke="#E7A117" stroke-width="2" />
    <path d="M19 24.0977V10L31.3905 17.049L19 24.0977Z" fill="#E7A117" />
</svg>