<svg width="41" height="41" viewBox="0 0 41 41" fill="none" xmlns="http://www.w3.org/2000/svg">
<g id="carrito-3">
<path id="rueda rueda-trasera" d="M22.1852 34.4877C22.1852 36.1922 20.8033 37.5741 19.0988 37.5741C17.3942 37.5741 16.0123 36.1922 16.0123 34.4877C16.0123 32.7831 17.3942 31.4012 19.0988 31.4012C20.8033 31.4012 22.1852 32.7831 22.1852 34.4877Z" fill="#E7A117" stroke="#C57F1E" stroke-width="1.5"/>
<path id="rueda rueda-delantera" d="M34.5309 34.4877C34.5309 36.1922 33.149 37.5741 31.4444 37.5741C29.7399 37.5741 28.358 36.1922 28.358 34.4877C28.358 32.7831 29.7399 31.4012 31.4444 31.4012C33.149 31.4012 34.5309 32.7831 34.5309 34.4877Z" fill="#E7A117" stroke="#C57F1E" stroke-width="1.5"/>
<path id="carrito" d="M1 11.5174C1 11.5174 6.39007 9.2282 8.09876 11.5174C8.69873 12.3212 9.20988 13.9248 9.20988 13.9248L11.9568 21.3631L14.5802 28.4842H25.4753H35.2901L39.5 18" stroke="#C57F1E" stroke-width="1.5" stroke-linecap="round"/>
<g id="plato">
<path d="M28.1623 8.88051C28.3068 8.53166 28.5186 8.21469 28.7857 7.94771L31.3952 5.33815L31.5285 5.20488C29.7756 4.12376 27.7106 3.5 25.5 3.5C22.4358 3.5 19.6514 4.69846 17.5902 6.65221L17.6927 6.75472L21.659 10.721C22.6772 9.80643 24.0236 9.25 25.5 9.25C26.376 9.25 27.2062 9.44589 27.9493 9.79625C27.9695 9.4818 28.0414 9.17239 28.1623 8.88051Z" fill="#E7A117"/>
<path d="M32.3794 11.5415C32.1124 11.8085 31.7955 12.0203 31.4466 12.1648C31.1809 12.2749 30.9006 12.3443 30.6152 12.3711C31.021 13.159 31.25 14.0528 31.25 15C31.25 16.4764 30.6936 17.8228 29.779 18.841L33.1331 22.1951C33.3521 22.4141 33.5041 22.6874 33.5761 22.9833C33.5899 23.0398 33.6007 23.097 33.6085 23.1549C35.7032 21.072 37 18.1874 37 15C37 12.6996 36.3246 10.557 35.1612 8.75963L35.0285 8.89238L32.3794 11.5415Z" fill="#E7A117"/>
<path d="M26.8575 20.5888C26.4223 20.6942 25.9677 20.75 25.5 20.75C24.5156 20.75 23.589 20.5026 22.7789 20.0666L18.7919 24.076C18.7651 24.1027 18.7377 24.1285 18.7095 24.1534C18.6828 24.1769 18.6554 24.1996 18.6275 24.2214C20.5448 25.6527 22.9234 26.5 25.5 26.5C27.6193 26.5 29.6046 25.9267 31.3095 24.9268C31.2596 24.9062 31.2107 24.8832 31.163 24.8578C31.0177 24.7807 30.8833 24.6818 30.7648 24.5634L26.8575 20.5888Z" fill="#E7A117"/>
<path d="M16.2511 21.5352L20.0371 17.7744L20.3211 17.5013C19.9551 16.745 19.75 15.8965 19.75 15C19.75 14.8727 19.7541 14.7464 19.7623 14.6212L18.091 12.9498C16.8774 11.7362 16.0727 10.1926 15.829 8.7747C15.7525 8.89332 15.6781 9.01344 15.6059 9.135C14.5858 10.8522 14 12.8577 14 15C14 17.4862 14.7889 19.7881 16.1301 21.669C16.1526 21.6416 16.1759 21.6147 16.2 21.5885C16.2167 21.5704 16.2337 21.5527 16.2511 21.5352Z" fill="#E7A117"/>
<path d="M16.5826 5.64457L17.1129 5.11424C16.821 4.82234 16.3481 4.82121 16.0548 5.11171L16.5826 5.64457ZM33.1331 22.1951L33.6635 21.6648L33.6635 21.6648L33.1331 22.1951ZM33.6236 23.3793H32.8736H33.6236ZM33.1331 24.5634L33.6633 25.0939L33.6635 25.0937L33.1331 24.5634ZM30.7648 24.5634L30.23 25.0892L30.2347 25.0939L30.7648 24.5634ZM26.7219 20.4508L27.2567 19.925L27.2563 19.9246L26.7219 20.4508ZM26.3086 19.4432H25.5586V19.4438L26.3086 19.4432ZM26.3086 19.1948L25.5586 19.1947V19.1948H26.3086ZM25.8809 18.1715L26.4078 17.6377C26.4019 17.6319 26.3959 17.6261 26.3897 17.6205L25.8809 18.1715ZM25.3589 17.6895L25.8678 17.1385L25.8675 17.1383L25.3589 17.6895ZM24.0203 17.3553L24.2097 18.0809L24.2101 18.0808L24.0203 17.3553ZM21.9287 16.7879L21.3983 17.3182L21.3986 17.3184L21.9287 16.7879ZM18.091 12.9498L18.6214 12.4195L18.6214 12.4194L18.091 12.9498ZM32.7862 5.00783C33.0791 4.71494 33.0791 4.24006 32.7862 3.94717C32.4933 3.65428 32.0184 3.65428 31.7255 3.94717L32.7862 5.00783ZM28.7857 7.94771L29.3159 8.4781L29.316 8.47804L28.7857 7.94771ZM28.1623 8.88051L27.4694 8.59347L28.1623 8.88051ZM27.9434 9.98088H28.6934V9.98087L27.9434 9.98088ZM27.9434 10.6484H27.1934V10.6485L27.9434 10.6484ZM27.7327 11.1569L27.2025 10.6264L27.2024 10.6266L27.7327 11.1569ZM26.6943 11.1347C26.4014 11.4276 26.4014 11.9024 26.6943 12.1953C26.9872 12.4882 27.4621 12.4882 27.7549 12.1953L26.6943 11.1347ZM28.1318 12.5722C27.8389 12.8651 27.8389 13.3399 28.1318 13.6328C28.4247 13.9257 28.8996 13.9257 29.1924 13.6328L28.1318 12.5722ZM29.1702 12.5944L29.7005 13.1248L29.7007 13.1246L29.1702 12.5944ZM29.6787 12.3837L29.6786 13.1337H29.6787V12.3837ZM30.3462 12.3837L30.3462 11.6337H30.3462V12.3837ZM31.4466 12.1648L31.1596 11.472L31.4466 12.1648ZM32.3794 11.5415L31.8491 11.0111L31.849 11.0112L32.3794 11.5415ZM36.3799 8.60158C36.6728 8.30869 36.6728 7.83381 36.3799 7.54092C36.0871 7.24803 35.6122 7.24803 35.3193 7.54092L36.3799 8.60158ZM34.5831 6.80471C34.876 6.51181 34.876 6.03694 34.5831 5.74405C34.2902 5.45115 33.8153 5.45115 33.5224 5.74404L34.5831 6.80471ZM29.9287 9.33779C29.6358 9.63069 29.6358 10.1056 29.9287 10.3985C30.2216 10.6913 30.6964 10.6913 30.9893 10.3985L29.9287 9.33779ZM23.8033 20.1001C24.0954 19.8064 24.094 19.3315 23.8003 19.0394C23.5066 18.7474 23.0318 18.7487 22.7397 19.0424L23.8033 20.1001ZM18.7919 24.076L19.3221 24.6064L19.3237 24.6049L18.7919 24.076ZM16.2511 24.076L15.7207 24.6063L15.7209 24.6064L16.2511 24.076ZM15.725 22.8056H16.475H15.725ZM16.2511 21.5352L15.7225 21.0031L15.7207 21.005L16.2511 21.5352ZM20.0371 17.7744L19.5171 17.2338L19.5086 17.2423L20.0371 17.7744ZM15.829 8.7747L16.5682 8.64768L15.829 8.7747ZM30.6152 12.3711L30.5451 11.6244L30.6152 12.3711ZM22.7789 20.0666L22.2471 19.5378L22.2471 19.5378L22.7789 20.0666ZM16.1301 21.669L16.711 22.1435L16.1301 21.669ZM33.6085 23.1549L32.8653 23.2554L33.6085 23.1549ZM21.659 10.721L21.1287 11.2513L21.659 10.721ZM20.3211 17.5013L20.841 18.0418L21.2332 17.6645L20.9962 17.1746L20.3211 17.5013ZM17.4893 6.55134L18.0197 6.02101L17.4893 6.55134ZM17.6927 6.75472L17.1624 7.28505L17.1624 7.28505L17.6927 6.75472ZM15.6059 9.135L16.2507 9.51805L15.6059 9.135ZM16.2 21.5885L15.6483 21.0804L16.2 21.5885ZM16.0159 21.8254L16.6445 22.2345L16.0159 21.8254ZM18.7095 24.1534L19.2053 24.7161L18.7095 24.1534ZM18.4686 24.3323L18.8639 24.9696L18.4686 24.3323ZM31.163 24.8578L30.8111 25.5202L31.163 24.8578ZM31.4998 24.9924L31.2987 25.7149L31.4998 24.9924ZM33.6232 23.3428L34.373 23.3264L33.6232 23.3428ZM33.5761 22.9833L34.3049 22.806L33.5761 22.9833ZM35.2364 8.68445L34.7061 8.15412L34.7061 8.15412L35.2364 8.68445ZM35.0285 8.89238L35.5588 9.42271L35.0285 8.89238ZM31.3952 5.33815L31.9256 5.86848V5.86847L31.3952 5.33815ZM31.6042 5.12919L31.0738 4.59886V4.59886L31.6042 5.12919ZM32.8736 23.3793C32.8736 23.6245 32.7762 23.8597 32.6028 24.0331L33.6635 25.0937C34.1182 24.639 34.3736 24.0223 34.3736 23.3793H32.8736ZM32.603 24.0329C32.4295 24.2063 32.1943 24.3037 31.949 24.3037V25.8037C32.5919 25.8037 33.2085 25.5484 33.6633 25.0939L32.603 24.0329ZM27.2563 19.9246C27.1297 19.7961 27.0587 19.623 27.0586 19.4427L25.5586 19.4438C25.559 20.0176 25.7849 20.5682 26.1875 20.9771L27.2563 19.9246ZM27.0586 19.4432V19.1948H25.5586V19.4432H27.0586ZM27.0586 19.1949C27.0586 18.9052 27.0011 18.6184 26.8894 18.351L25.5054 18.9294C25.5405 19.0135 25.5586 19.1036 25.5586 19.1947L27.0586 19.1949ZM26.8894 18.351C26.7777 18.0837 26.614 17.8413 26.4078 17.6377L25.3541 18.7052C25.4189 18.7692 25.4703 18.8454 25.5054 18.9294L26.8894 18.351ZM26.3897 17.6205L25.8678 17.1385L24.8501 18.2405L25.3721 18.7225L26.3897 17.6205ZM25.8675 17.1383C25.5979 16.8895 25.27 16.7125 24.914 16.6236L24.5507 18.0789C24.6625 18.1069 24.7656 18.1625 24.8503 18.2407L25.8675 17.1383ZM24.914 16.6236C24.558 16.5347 24.1854 16.5368 23.8304 16.6297L24.2101 18.0808C24.3217 18.0516 24.4388 18.051 24.5507 18.0789L24.914 16.6236ZM23.8309 16.6296C23.5896 16.6925 23.336 16.6913 23.0954 16.626L22.7026 18.0737C23.1958 18.2075 23.7153 18.21 24.2097 18.0809L23.8309 16.6296ZM23.0954 16.626C22.8547 16.5607 22.6353 16.4337 22.4589 16.2574L21.3986 17.3184C21.76 17.6796 22.2095 17.94 22.7026 18.0737L23.0954 16.626ZM28.2554 7.41733C27.9187 7.75395 27.6516 8.15361 27.4694 8.59347L28.8552 9.16756C28.962 8.90971 29.1186 8.67543 29.3159 8.4781L28.2554 7.41733ZM27.1934 9.98088V10.6484H28.6934V9.98088H27.1934ZM27.1934 10.6485C27.1934 10.6444 27.1942 10.6404 27.1957 10.6366L28.5815 11.2107C28.6554 11.0324 28.6934 10.8413 28.6934 10.6483L27.1934 10.6485ZM27.1957 10.6366C27.1973 10.6328 27.1996 10.6293 27.2025 10.6264L28.2628 11.6874C28.3994 11.551 28.5076 11.389 28.5815 11.2107L27.1957 10.6366ZM27.2024 10.6266L26.6943 11.1347L27.7549 12.1953L28.263 11.6873L27.2024 10.6266ZM29.1924 13.6328L29.7005 13.1248L28.6399 12.0641L28.1318 12.5722L29.1924 13.6328ZM29.7007 13.1246C29.6978 13.1275 29.6943 13.1298 29.6905 13.1314L29.1164 11.7456C28.9381 11.8195 28.7761 11.9278 28.6397 12.0643L29.7007 13.1246ZM29.6905 13.1314C29.6868 13.1329 29.6827 13.1338 29.6786 13.1337L29.6788 11.6337C29.4858 11.6337 29.2947 11.6717 29.1164 11.7456L29.6905 13.1314ZM29.6787 13.1337H30.3462V11.6337H29.6787V13.1337ZM31.7337 12.8577C32.1735 12.6755 32.5732 12.4084 32.9098 12.0717L31.849 11.0112C31.6517 11.2086 31.4174 11.3651 31.1596 11.472L31.7337 12.8577ZM17.5215 23.8521C17.2439 23.8521 16.9777 23.7419 16.7814 23.5456L15.7209 24.6064C16.1985 25.0839 16.8462 25.3521 17.5215 25.3521V23.8521ZM16.7815 23.5458C16.5853 23.3494 16.475 23.0832 16.475 22.8056H14.975C14.975 23.481 15.2432 24.1287 15.7207 24.6063L16.7815 23.5458ZM16.7797 22.0673L20.5657 18.3065L19.5086 17.2423L15.7225 21.0031L16.7797 22.0673ZM18.1061 7.19654C20.0336 5.36957 22.6353 4.25 25.5 4.25V2.75C22.2363 2.75 19.2693 4.02734 17.0743 6.10788L18.1061 7.19654ZM18.6214 12.4194C17.5064 11.3045 16.7831 9.89815 16.5682 8.64768L15.0899 8.90172C15.3623 10.487 16.2484 12.1678 17.5607 13.4801L18.6214 12.4194ZM16.5682 8.64768C16.3783 7.5427 16.5981 6.68485 17.1103 6.17743L16.0548 5.11171C15.0673 6.08976 14.8529 7.52284 15.0899 8.90172L16.5682 8.64768ZM25.5 4.25C27.5677 4.25 29.4968 4.833 31.1348 5.84323L31.9222 4.56653C30.0544 3.41452 27.8536 2.75 25.5 2.75V4.25ZM34.5316 9.16716C35.6188 10.8468 36.25 12.8485 36.25 15H37.75C37.75 12.5507 37.0304 10.2672 35.7909 8.35211L34.5316 9.16716ZM29.9484 12.7145C30.3008 13.3987 30.5 14.175 30.5 15H32C32 13.9305 31.7411 12.9194 31.282 12.0278L29.9484 12.7145ZM30.3462 13.1337C30.4597 13.1338 30.5728 13.1284 30.6854 13.1179L30.5451 11.6244C30.4791 11.6306 30.4127 11.6337 30.3462 11.6337L30.3462 13.1337ZM30.6854 13.1179C31.0452 13.084 31.3986 12.9965 31.7337 12.8577L31.1596 11.472C30.9631 11.5533 30.756 11.6046 30.5451 11.6244L30.6854 13.1179ZM25.5 10C26.2631 10 26.9843 10.1704 27.6294 10.4746L28.2692 9.11787C27.4281 8.72133 26.4889 8.5 25.5 8.5V10ZM27.4694 8.59347C27.3169 8.96148 27.2264 9.35161 27.2008 9.74809L28.6978 9.84441C28.7127 9.61199 28.7658 9.3833 28.8552 9.16756L27.4694 8.59347ZM27.2008 9.74809C27.1959 9.82548 27.1934 9.90312 27.1934 9.98088L28.6934 9.98087C28.6934 9.93529 28.6948 9.88978 28.6978 9.84441L27.2008 9.74809ZM29.2487 19.3713L32.6028 22.7255L33.6635 21.6648L30.3093 18.3107L29.2487 19.3713ZM30.5 15C30.5 16.2843 30.0168 17.4539 29.221 18.3398L30.337 19.3422C31.3704 18.1917 32 16.6685 32 15H30.5ZM26.6811 19.8599C26.3032 19.9513 25.9078 20 25.5 20V21.5C26.0275 21.5 26.5414 21.437 27.034 21.3178L26.6811 19.8599ZM31.2997 24.0376L27.3924 20.063L26.3227 21.1146L30.23 25.0892L31.2997 24.0376ZM27.3924 20.063L27.2567 19.925L26.187 20.9766L26.3227 21.1146L27.3924 20.063ZM25.5 20C24.6427 20 23.8378 19.7849 23.1343 19.4062L22.4234 20.7271C23.3401 21.2204 24.3885 21.5 25.5 21.5V20ZM22.7397 19.0424L22.2471 19.5378L23.3107 20.5955L23.8033 20.1001L22.7397 19.0424ZM22.2471 19.5378L18.2601 23.5472L19.3237 24.6049L23.3107 20.5955L22.2471 19.5378ZM25.5 25.75C23.0906 25.75 20.8683 24.9582 19.0761 23.6204L18.1788 24.8224C20.2213 26.3471 22.7563 27.25 25.5 27.25V25.75ZM16.7408 21.2336C15.4872 19.4756 14.75 17.325 14.75 15H13.25C13.25 17.6474 14.0906 20.1006 15.5195 22.1045L16.7408 21.2336ZM36.25 15C36.25 17.9798 35.0386 20.6752 33.0797 22.6231L34.1373 23.6867C36.3678 21.4688 37.75 18.3951 37.75 15H36.25ZM30.9301 24.2799C29.3371 25.2142 27.4823 25.75 25.5 25.75V27.25C27.7562 27.25 29.8721 26.6393 31.6889 25.5738L30.9301 24.2799ZM21.1287 11.2513L29.2487 19.3713L30.3093 18.3107L22.1893 10.1907L21.1287 11.2513ZM22.1602 11.279C23.0461 10.4832 24.2157 10 25.5 10V8.5C23.8315 8.5 22.3083 9.12963 21.1578 10.163L22.1602 11.279ZM20.5 15C20.5 14.889 20.5036 14.7789 20.5107 14.6699L19.0139 14.5725C19.0047 14.7139 19 14.8565 19 15H20.5ZM22.4591 16.2576L20.2926 14.0909L19.2319 15.1515L21.3983 17.3182L22.4591 16.2576ZM20.2926 14.0909L18.6214 12.4195L17.5607 13.4801L19.2319 15.1515L20.2926 14.0909ZM20.9962 17.1746C20.6785 16.518 20.5 15.7809 20.5 15H19C19 16.012 19.2318 16.972 19.6459 17.8279L20.9962 17.1746ZM20.557 18.3149L20.841 18.0418L19.8011 16.9607L19.5172 17.2338L20.557 18.3149ZM33.5224 5.74404L29.9287 9.33779L30.9893 10.3985L34.5831 6.80471L33.5224 5.74404ZM16.0522 6.1749L16.959 7.08167L18.0197 6.02101L17.1129 5.11424L16.0522 6.1749ZM16.959 7.08167L17.0599 7.18254L18.1205 6.12188L18.0197 6.02101L16.959 7.08167ZM17.0599 7.18254L17.1624 7.28505L18.223 6.22439L18.1205 6.12188L17.0599 7.18254ZM17.1624 7.28505L21.1287 11.2513L22.1893 10.1907L18.223 6.22439L17.1624 7.28505ZM14.75 15C14.75 12.9962 15.2975 11.1226 16.2507 9.51805L14.9611 8.75195C13.874 10.5819 13.25 12.7192 13.25 15H14.75ZM16.2507 9.51805C16.3182 9.40442 16.3878 9.29213 16.4593 9.18124L15.1988 8.36816C15.1173 8.49451 15.038 8.62246 14.9611 8.75195L16.2507 9.51805ZM16.711 22.1435C16.7241 22.1275 16.7377 22.1118 16.7517 22.0965L15.6483 21.0804C15.6141 21.1176 15.5811 21.1557 15.5492 21.1946L16.711 22.1435ZM16.7517 22.0965C16.7614 22.086 16.7714 22.0756 16.7815 22.0655L15.7207 21.005C15.696 21.0297 15.6719 21.0548 15.6483 21.0804L16.7517 22.0965ZM16.475 22.8056C16.475 22.6014 16.5347 22.4032 16.6445 22.2345L15.3874 21.4162C15.1203 21.8265 14.975 22.3086 14.975 22.8056H16.475ZM16.6445 22.2345C16.665 22.2031 16.6872 22.1727 16.711 22.1435L15.5492 21.1946C15.4911 21.2658 15.4371 21.3398 15.3874 21.4162L16.6445 22.2345ZM18.2616 23.5456C18.246 23.5612 18.23 23.5762 18.2136 23.5907L19.2053 24.7161C19.2453 24.6808 19.2843 24.6443 19.3221 24.6064L18.2616 23.5456ZM18.2136 23.5907C18.198 23.6044 18.1821 23.6176 18.1658 23.6303L19.0891 24.8125C19.1287 24.7816 19.1675 24.7494 19.2053 24.7161L18.2136 23.5907ZM18.1658 23.6303C18.1361 23.6536 18.1052 23.6751 18.0733 23.6949L18.8639 24.9696C18.9415 24.9215 19.0167 24.8691 19.0891 24.8125L18.1658 23.6303ZM18.0733 23.6949C17.9089 23.7969 17.718 23.8521 17.5215 23.8521V25.3521C17.9997 25.3521 18.464 25.2176 18.8639 24.9696L18.0733 23.6949ZM31.5958 24.2336C31.5683 24.2222 31.5412 24.2095 31.5149 24.1955L30.8111 25.5202C30.8802 25.5569 30.951 25.5902 31.0232 25.62L31.5958 24.2336ZM31.5149 24.1955C31.4347 24.1529 31.3605 24.0983 31.295 24.0329L30.2347 25.0939C30.4062 25.2653 30.6008 25.4084 30.8111 25.5202L31.5149 24.1955ZM31.949 24.3037C31.8644 24.3037 31.781 24.2921 31.7009 24.2698L31.2987 25.7149C31.5086 25.7733 31.7273 25.8037 31.949 25.8037V24.3037ZM31.7009 24.2698C31.6652 24.2599 31.6301 24.2478 31.5958 24.2336L31.0232 25.62C31.113 25.6571 31.205 25.6888 31.2987 25.7149L31.7009 24.2698ZM32.8653 23.2554C32.8699 23.2896 32.8726 23.3242 32.8734 23.3591L34.373 23.3264C34.371 23.2351 34.3639 23.1442 34.3517 23.0544L32.8653 23.2554ZM32.8734 23.3591C32.8735 23.3659 32.8736 23.3726 32.8736 23.3793H34.3736C34.3736 23.3616 34.3734 23.344 34.373 23.3264L32.8734 23.3591ZM32.6028 22.7255C32.7236 22.8463 32.8076 22.9972 32.8474 23.1607L34.3049 22.806C34.2006 22.3776 33.9805 21.9818 33.6635 21.6648L32.6028 22.7255ZM32.8474 23.1607C32.855 23.1918 32.8609 23.2234 32.8653 23.2554L34.3517 23.0544C34.3404 22.9706 34.3247 22.8877 34.3049 22.806L32.8474 23.1607ZM35.6916 9.28996L35.7667 9.21478L34.7061 8.15412L34.6309 8.22931L35.6916 9.28996ZM35.7667 9.21478L36.3799 8.60158L35.3193 7.54092L34.7061 8.15412L35.7667 9.21478ZM32.9097 12.0718L35.5588 9.42271L34.4982 8.36205L31.8491 11.0111L32.9097 12.0718ZM35.5588 9.42271L35.6916 9.28996L34.6309 8.2293L34.4982 8.36205L35.5588 9.42271ZM30.9982 4.67455L30.8649 4.80782L31.9256 5.86847L32.0588 5.73521L30.9982 4.67455ZM30.8649 4.80782L28.2553 7.41738L29.316 8.47804L31.9256 5.86848L30.8649 4.80782ZM31.7255 3.94717L31.0738 4.59886L32.1345 5.65952L32.7862 5.00783L31.7255 3.94717ZM31.0738 4.59886L30.9982 4.67455L32.0588 5.73521L32.1345 5.65952L31.0738 4.59886Z" fill="#C57F1E"/>
</g>
</g>
</svg>
